<svg xmlns="http://www.w3.org/2000/svg" width="100" height="100"><g transform="scale(0.078125,0.078125)"><path d="M1200 1170l0 -1001q0 -49 -16 -77q-17 -28 -32 -44q-16 -15 -44 -32q-28 -16 -77 -16l-782 0q-49 0 -77 16q-28 17 -44 32q-15 16 -32 44q-16 28 -16 77l0 1001l65 33l28 77l170 0l28 -80l538 0l28 80l170 0l28 -77l65 -33M320 80l640 0l0 80l-640 0l0 -80M160 240l960 0l0 480l-960 0l0 -480M160 880l240 0l0 80l-240 0l0 -80M880 880l240 0l0 80l-240 0l0 -80M480 1040l320 0l0 80l-320 0l0 -80" fill="black"/></g></svg>